<svg width="100" height="39" viewBox="0 0 100 39" fill="none" xmlns="http://www.w3.org/2000/svg">
<path fill-rule="evenodd" clip-rule="evenodd" d="M18.8568 0.262299C18.7059 0.428945 18.5827 0.63302 18.5827 0.71594C18.5827 0.79886 18.3407 1.22878 18.045 1.67113C17.0992 3.08609 15.9589 5.31476 15.494 6.65729C15.2459 7.37404 14.9758 7.96061 14.894 7.96061C14.8122 7.96061 13.8846 7.13609 12.8327 6.12815C10.734 4.11775 9.80641 3.40648 9.09869 3.26483C8.09058 3.06318 7.89619 3.97659 8.27046 7.154C8.36451 7.95255 8.46307 8.89693 8.48969 9.25248C8.51615 9.6082 8.58955 10.1344 8.65279 10.4221C8.71603 10.7097 8.73555 10.9451 8.69651 10.9451C8.65731 10.9451 8.11542 10.6647 7.49207 10.3221C6.15213 9.58561 3.72761 8.52524 3.38335 8.52524C3.2501 8.52524 2.73306 8.30746 2.23425 8.04127C1.14839 7.4618 0.846068 7.44261 0.333708 7.92028C-0.225759 8.442 -0.073631 9.11003 0.728949 9.65514C1.59106 10.2406 2.11455 11.1148 3.57871 14.4135C4.34467 16.139 4.70894 17.0931 4.70894 17.3733C4.70894 17.5427 4.81928 17.7727 4.95431 17.8847C5.08918 17.9967 5.28083 18.4111 5.3802 18.8055C5.47958 19.2 5.66219 19.5616 5.78609 19.6091C6.25812 19.7902 6.50801 20.6709 6.6611 22.6924C6.74596 23.8138 6.87582 24.7917 6.94955 24.8654C7.02327 24.9392 7.1199 24.1198 7.16427 23.0444C7.24348 21.1199 7.46175 20.3236 7.67598 21.1773C7.8202 21.7516 8.01911 21.6969 8.3658 20.9874C8.64069 20.4247 8.71684 20.3789 9.45505 20.3321C10.5372 20.2636 12.2922 20.5789 12.9062 20.9522C13.4842 21.3038 13.7028 21.924 13.4468 22.4859C13.2385 22.9431 11.7289 23.9837 11.1806 24.0479C10.8708 24.0842 10.7555 23.9828 10.5879 23.5282C10.4735 23.2177 10.3743 22.5601 10.3675 22.0668C10.3517 20.9079 10.0916 20.5241 9.46376 20.7333C8.39419 21.0898 8.00008 22.5942 8.48259 24.4778C8.62536 25.0347 8.742 25.7025 8.742 25.9621C8.742 26.2728 8.88719 26.5579 9.16676 26.7961C9.40036 26.9951 9.79963 27.5936 10.0539 28.1259C10.4538 28.9632 10.5164 29.2846 10.5164 30.5054C10.5165 31.2819 10.5798 31.917 10.6569 31.917C10.7342 31.917 10.8887 31.5903 11.0005 31.1911C11.4077 29.7366 11.6384 30.3956 11.7626 33.3689C11.8647 35.8147 12.098 35.8147 12.1224 33.3689C12.1419 31.3898 12.283 30.8291 12.9961 29.8952C13.3181 29.4733 13.5817 29.0369 13.5817 28.9256C13.5817 28.8141 13.2902 28.335 12.9338 27.8607C12.5774 27.3864 12.3526 26.9762 12.4339 26.9491C12.5153 26.922 13.1742 27.1282 13.8979 27.4072C15.459 28.0093 17.5292 29.3478 17.8458 29.9598C17.9695 30.1992 18.1581 30.9917 18.2647 31.7207C18.3712 32.4497 18.5143 33.0463 18.5824 33.0463C18.7546 33.0463 18.9005 32.4368 18.9031 31.7058C18.9045 31.3377 18.97 31.1314 19.0666 31.1911C19.1554 31.2459 19.228 31.5768 19.228 31.9265C19.228 32.676 19.4793 32.7706 19.6313 32.0783C19.7578 31.5024 20.0346 31.4332 20.0346 31.9775C20.0346 32.5967 20.2248 33.3689 20.3774 33.3689C20.455 33.3689 20.5185 32.9838 20.5185 32.5133C20.5185 31.7471 20.5776 31.6003 21.0832 31.1104C21.3937 30.8094 21.6478 30.4685 21.6478 30.3528C21.6478 30.0866 21.6241 30.0829 22.3738 30.4651C22.7219 30.6426 23.0945 30.7878 23.2021 30.7878C23.5729 30.7878 24.3903 29.9579 24.3903 29.5814C24.3903 29.1813 24.5242 29.1363 26.3433 28.9254C27.4014 28.8027 27.3807 28.7765 27.5459 30.4522C27.6082 31.0843 27.715 31.636 27.7832 31.6783C27.8515 31.7204 27.9944 31.3921 28.1009 30.9488C28.2072 30.5053 28.348 30.1425 28.4138 30.1425C28.6757 30.1425 28.9481 31.606 28.9994 33.2883C29.0291 34.2643 29.1114 35.0628 29.1821 35.0628C29.4048 35.0628 29.5715 32.4057 29.4874 30.196C29.3974 27.8297 29.2355 27.269 28.3185 26.1499C27.8226 25.5448 27.6737 25.4548 27.3136 25.5423C27.081 25.599 26.7179 25.8153 26.5067 26.0231C26.169 26.3553 26.1435 26.4614 26.2963 26.8996C26.4981 27.4784 26.6585 27.4111 24.1483 27.8007L22.5351 28.0511L22.0108 27.4566C21.4437 26.8137 21.3748 26.6153 21.6881 26.5255C23.2859 26.0673 24.0331 25.4985 23.8081 24.9117C23.7148 24.6689 23.5345 24.6498 22.2718 24.7485L20.8412 24.8604V24.3849C20.8412 23.7802 21.2814 22.2838 21.4987 22.1494C21.6772 22.0392 25.6809 22.3924 25.6809 22.5184C25.6809 22.5601 25.4958 22.8142 25.2698 23.0828C24.625 23.8491 24.2056 24.7932 24.2599 25.3551C24.3054 25.8237 24.3553 25.8653 24.8446 25.8424C25.4736 25.8132 26.0021 25.3915 26.0071 24.9148C26.0134 24.3165 26.617 23.2132 27.0449 23.0183C27.5233 22.8002 27.4922 22.7765 27.8119 23.602C28.1944 24.5894 28.4948 24.5607 28.3608 23.5495C28.2899 23.016 28.3103 22.7216 28.4179 22.7216C28.5097 22.7216 28.5852 22.8125 28.5856 22.9233C28.5863 23.0343 28.6834 23.3105 28.8018 23.5371C29.3042 24.4997 29.5526 25.574 29.5526 26.7834C29.5526 27.5171 29.6202 28.0453 29.7139 28.0453C29.8027 28.0453 29.8753 27.8154 29.8753 27.5344C29.8753 26.4709 30.0377 27.2411 30.0766 28.4886C30.1345 30.3488 30.5317 30.5298 30.7691 28.8041C30.8288 28.3702 30.933 28.0764 31.0008 28.1513C31.1242 28.2874 31.7966 33.005 31.8842 34.3488C31.9473 35.3146 31.9526 35.3361 32.1107 35.2383C32.1868 35.1914 32.263 33.8259 32.2799 32.2042C32.297 30.5824 32.38 29.1865 32.4643 29.1021C32.5613 29.0051 32.6177 29.0545 32.6177 29.2363C32.6177 29.3946 32.7086 29.4941 32.8194 29.4577C32.9336 29.4201 33.0428 29.0527 33.0714 28.611C33.1161 27.9149 32.9912 27.5684 31.9118 25.3972C31.2463 24.0587 30.6561 22.7458 30.5999 22.4796L30.4978 21.9957L31.1566 22.6355C31.519 22.9873 31.9016 23.5137 32.007 23.8051C32.1123 24.0964 32.2865 24.3349 32.394 24.3349C32.5014 24.3349 32.6384 24.6249 32.6982 24.9793C32.831 25.7645 33.0285 25.9237 33.209 25.3905L33.3437 24.9922L33.8325 25.4299C34.5284 26.0531 35.0492 26.7668 34.9385 26.9459C34.8864 27.0302 34.8972 27.7657 34.9627 28.5805C35.0981 30.2644 35.3304 30.1123 35.3489 28.3276C35.3573 27.5176 35.417 27.2387 35.5817 27.2387C35.8984 27.2387 37.1043 28.5933 37.2285 29.0887C37.3159 29.4368 37.373 29.4728 37.5741 29.306C37.8986 29.0366 38.2055 29.4568 38.3429 30.359C38.3991 30.7279 38.5076 31.2112 38.5843 31.433C38.6609 31.6549 38.7686 32.1087 38.8238 32.4413C38.8788 32.7741 38.9932 33.0463 39.0779 33.0463C39.1626 33.0463 39.2392 32.7741 39.2481 32.4413C39.257 32.1087 39.3133 31.6605 39.3733 31.4456C39.4599 31.1359 39.544 31.3151 39.7787 32.3113C40.505 35.3917 40.633 35.3993 40.6161 32.3606L40.6032 30.0618L41.1717 29.9213C41.6645 29.7995 41.8459 29.8477 42.5342 30.2843C43.4989 30.896 43.6487 30.9026 44.3538 30.3648C44.7695 30.0476 44.8907 29.849 44.8376 29.5714C44.7592 29.1613 44.8771 29.1211 46.7502 28.9209C47.6895 28.8204 47.7396 28.8332 47.8369 29.1966C47.8931 29.4063 47.9485 29.8682 47.9603 30.2231C47.9719 30.578 48.0342 31.0862 48.0984 31.3524C48.2286 31.8914 48.2993 31.7897 48.5943 30.639C48.9042 29.4314 49.0675 30.1886 49.0702 32.8446C49.0715 34.2493 49.1368 35.3048 49.2225 35.3048C49.6397 35.3048 49.8794 34.759 49.8831 33.8011C49.8852 33.2528 49.964 32.5139 50.058 32.159C50.1522 31.8041 50.2879 31.0949 50.3597 30.583C50.4939 29.6251 50.7297 29.1745 51.0966 29.1745C51.4333 29.1745 52.3159 28.3526 52.8016 27.5868L53.2498 26.8799L53.5635 27.3958C53.736 27.6794 53.9667 28.4875 54.0762 29.1913C54.2917 30.5764 54.4815 30.8987 54.6639 30.1894L54.7796 29.7392L54.8945 30.1425C54.9577 30.3643 55.0238 30.8724 55.0416 31.2717C55.0688 31.8857 55.0937 31.9354 55.2029 31.5944C55.2739 31.3725 55.3392 30.8825 55.3481 30.5054C55.357 30.1284 55.4325 29.8198 55.5157 29.8198C55.5991 29.8198 56.0023 30.1097 56.4115 30.464C57.5101 31.4148 57.7029 31.486 58.8619 31.3672L59.8875 31.262L59.8014 31.7508C59.7522 32.0304 59.7854 32.2397 59.879 32.2397C59.969 32.2397 60.0426 32.1735 60.0426 32.0925C60.0426 32.0117 60.1697 31.9638 60.3249 31.9862C60.5501 32.0187 60.6235 32.2361 60.6879 33.0595C60.7516 33.8758 60.8276 34.1033 61.0508 34.1455C61.2312 34.1799 61.3406 34.0929 61.3538 33.905C61.3653 33.7432 61.387 33.3931 61.4022 33.1269C61.4175 32.8607 61.453 32.3889 61.4813 32.0783C61.5301 31.5382 61.5382 31.5477 61.6637 32.2958C61.8002 33.1097 61.9076 33.3321 62.0804 33.1594C62.1364 33.1034 62.1707 31.4634 62.1564 29.5151C62.1415 27.48 62.1943 25.9334 62.2803 25.8803C62.5024 25.743 63.8366 29.0581 64.1581 30.5458C64.3113 31.2556 64.4917 31.8962 64.5588 31.9694C64.6257 32.0427 64.7332 31.7523 64.7974 31.3242C64.9953 30.0039 65.3888 29.5951 65.6926 30.3941C65.9339 31.0293 66.1728 30.7034 66.1728 29.7392C66.1728 29.255 66.2556 28.8198 66.3598 28.7554C66.4998 28.6688 66.519 29.1316 66.436 30.6008C66.3203 32.6484 66.4406 34.6595 66.6791 34.6595C66.7555 34.6595 66.8254 33.2984 66.8343 31.6347C66.8436 29.8677 66.9039 28.7777 66.9794 29.0132C67.0504 29.235 67.1242 29.3439 67.1433 29.2552C67.1624 29.1665 67.1948 29.0213 67.2155 28.9325C67.2361 28.8438 67.2652 28.2631 67.28 27.642C67.2971 26.9309 67.3589 26.5947 67.4473 26.734C67.5365 26.875 67.6109 26.5234 67.6518 25.7661C67.7128 24.6391 68.4633 22.2377 68.7545 22.2377C68.8155 22.2377 68.9552 22.9818 69.0649 23.8912C69.2678 25.5728 69.5245 26.8873 70.2701 30.0618C70.5694 31.3356 70.6881 32.2916 70.6908 33.4496C70.6947 34.9959 70.8473 35.685 71.1248 35.4077C71.1961 35.3364 71.2545 34.1936 71.2545 32.8682C71.2545 31.3014 71.3055 30.5726 71.4002 30.7844C71.6171 31.2701 71.817 31.179 71.8353 30.5861C71.8577 29.8543 72.0313 29.3076 72.2224 29.3667C72.3112 29.3941 72.4067 29.1792 72.4346 28.8891C72.5349 27.8467 72.7871 28.5768 72.7871 29.91C72.7871 30.659 72.8553 31.2717 72.9385 31.2717C73.0219 31.2717 73.1402 30.7636 73.2015 30.1425C73.2626 29.5214 73.3704 29.0132 73.4407 29.0132C73.7505 29.0132 74.5472 29.8713 74.6432 30.3081C74.7684 30.8784 75.002 30.9276 75.1959 30.4248C75.4074 29.8763 75.5118 30.2877 75.6667 32.2816C75.8054 34.066 75.8659 34.2859 76.1669 34.0997C76.2834 34.0278 76.3068 33.5711 76.2369 32.7333C76.1184 31.3117 76.2647 29.9881 76.5491 29.9102C77.7101 29.5915 78.2811 29.3404 79.0172 28.8248C79.9175 28.194 80.1952 28.3103 79.4585 29.0097C79.0389 29.408 79.0378 29.4164 79.1488 31.1875C79.27 33.1194 79.4623 33.643 79.6447 32.5375C79.7083 32.1519 79.817 31.7638 79.8861 31.675C79.9553 31.5863 80.0475 31.3685 80.0911 31.1911C80.1348 31.0136 80.1789 31.3948 80.1892 32.038C80.1995 32.6812 80.2773 33.2076 80.362 33.2076C80.5225 33.2076 80.6117 32.7836 80.7759 31.2427C80.888 30.1909 81.0214 30.0355 81.9371 29.889C82.5045 29.7984 82.6331 29.8327 82.8149 30.1239C83.0833 30.5538 83.3968 30.5567 83.8472 30.1334C84.1921 29.8095 84.2331 29.8076 85.6322 30.0523C86.4198 30.1901 87.2553 30.303 87.4889 30.3033C88.0359 30.3039 88.1077 30.5787 88.1105 32.6833C88.1117 33.5928 88.1772 34.3369 88.2561 34.3369C88.3352 34.3369 88.4528 33.4541 88.5176 32.375C88.606 30.9041 88.6768 30.4871 88.8009 30.7087C88.9058 30.8962 88.9279 31.761 88.8614 33.0739C88.8006 34.2756 88.8178 35.1435 88.9024 35.1435C89.0866 35.1435 89.3262 31.6255 89.3115 29.1342C89.3028 27.6426 89.347 27.2387 89.5188 27.2387C89.6864 27.2387 89.713 27.4192 89.634 28.0159C89.536 28.7538 89.5635 28.8309 90.1759 29.5385C90.7168 30.1634 91.1317 30.9888 91.4326 32.038C91.4643 32.149 91.5721 32.2397 91.6718 32.2397C91.796 32.2397 91.8196 31.9941 91.7465 31.4629C91.6707 30.911 91.7363 30.3073 91.9735 29.3791C92.1569 28.6602 92.3071 27.812 92.3071 27.494V26.916H93.3718C94.3938 26.916 94.4593 26.9402 95.0034 27.521C95.3151 27.8538 95.8504 28.4215 96.1929 28.7827C96.6738 29.29 96.8695 29.6756 97.0529 30.4766C97.302 31.5637 97.5754 33.8563 97.7621 36.421C97.8321 37.3825 97.9447 37.9643 98.0684 38.0053C98.4469 38.1307 98.4835 37.1602 98.1976 34.5774C97.9887 32.6891 97.9545 31.8397 98.0737 31.4995C98.2507 30.9949 98.2649 31.0144 98.5867 32.1993C98.6892 32.5763 98.8413 32.8849 98.9247 32.8849C99.192 32.8849 99.282 32.1154 99.2132 30.422C99.1327 28.4471 98.8324 27.7425 97.581 26.5919C96.7859 25.8606 96.769 25.8276 97.1029 25.649C97.2933 25.547 97.7948 25.4457 98.2175 25.4236C98.9684 25.3844 98.9949 25.3993 99.3691 26.0691C99.8042 26.8479 100.118 26.982 99.9365 26.3111C99.7963 25.7935 99.8031 25.2821 99.9606 24.4962C100.039 24.1048 100.002 23.8349 99.8388 23.6166C99.6071 23.3061 99.5805 23.3077 97.8366 23.7376C96.8646 23.9774 96.0165 24.1735 95.9522 24.1735C95.7128 24.1735 94.6827 21.6548 94.3151 20.1703C93.8881 18.4459 93.6836 18.1364 93.0735 18.2895C92.3344 18.475 92.0337 19.0177 91.4226 21.2697C91.0975 22.4675 90.726 23.8288 90.5969 24.2945L90.3622 25.1415H89.4143H88.4662L87.947 24.2139C87.1764 22.8371 85.8405 21.2489 84.5823 20.2139C83.8123 19.5804 83.4384 19.1525 83.3742 18.8312C83.278 18.3503 82.9318 18.2294 82.4759 18.5179C82.3259 18.6129 82.086 18.5835 81.799 18.4351C81.3893 18.2231 81.3196 18.2351 80.91 18.5876C80.3437 19.0746 80.3047 20.0853 80.8383 20.4397C81.1895 20.6728 81.2755 21.5243 81.0348 22.3849C80.9324 22.751 80.9076 22.7334 80.6183 22.0921C80.0119 20.7472 77.7937 19.1375 76.2208 18.9009C75.8849 18.8504 75.4955 18.6658 75.3553 18.4908C74.6571 17.6183 72.6272 18.5468 71.3337 20.3302L70.9036 20.923L70.7305 20.0075C70.4545 18.5471 70.2759 18.2046 69.7906 18.2046C69.5248 18.2046 69.1926 18.3917 68.8974 18.7076C68.3409 19.3037 66.9651 22.0058 66.0922 24.2177C65.75 25.085 65.4006 25.7713 65.3157 25.743C65.2307 25.7146 64.8795 25.0414 64.5352 24.2469C63.9384 22.8691 63.7182 22.218 63.5152 21.2294C63.4544 20.9326 63.3224 20.7858 63.1171 20.7858C62.6636 20.7858 61.8112 21.5706 61.493 22.2809L61.2149 22.9021L61.0124 22.1262C60.901 21.6995 60.7729 20.6486 60.7279 19.7909C60.638 18.0794 60.5691 17.9815 59.6304 18.229C58.1935 18.6077 57.987 19.8281 58.7478 23.4476C59.0301 24.7911 59.2989 26.6472 59.352 27.6208L59.4476 29.3741L59.0595 29.1676C57.7334 28.4621 55.9017 26.3885 54.8183 24.366C54.1004 23.0259 53.811 22.8467 52.9445 23.2056C52.4091 23.4273 51.9673 24.2505 51.4944 25.9077C51.3108 26.5511 51.1226 27.0773 51.0763 27.0773C50.8845 27.0773 50.5258 25.9145 50.5433 25.3483C50.5536 25.0127 50.5954 24.8661 50.6362 25.0224C50.7702 25.5365 51.0082 25.1373 51.0275 24.3657C51.038 23.9495 51.0971 23.3911 51.1587 23.1249L51.2707 22.641L51.3947 23.1667C51.5694 23.9073 51.8151 23.6558 51.8151 22.7361C51.8151 22.3111 51.8987 21.7234 52.0008 21.4304C52.16 20.9735 52.1462 20.8682 51.9035 20.6907C51.7175 20.5547 51.4967 20.5309 51.2599 20.6209C50.8325 20.7833 45.9898 20.8061 44.7169 20.6515C43.9337 20.5564 43.8339 20.5031 43.8653 20.1966C43.8848 20.0058 43.7874 19.7554 43.6487 19.6402C43.4384 19.4657 43.2833 19.491 42.7144 19.7927C42.1619 20.0858 41.9499 20.1232 41.5978 19.9893C41.0143 19.7675 40.1999 19.1538 40.1999 18.936C40.1999 18.8394 40.0905 18.6042 39.9568 18.4133C39.749 18.1165 39.6383 18.0876 39.1905 18.214C38.231 18.4845 38.1066 18.8067 38.1684 20.8601C38.1985 21.8647 38.2737 22.7682 38.3355 22.8681C38.5236 23.1724 38.7477 22.8938 38.753 22.3491C38.7603 21.6225 39.3389 21.2113 40.02 21.4488L40.5145 21.6211L40.2107 22.2165C40.0436 22.544 39.7884 23.2195 39.6437 23.7176C39.448 24.3903 39.2902 24.6468 39.0297 24.7149C38.8367 24.7654 38.6399 24.7488 38.5925 24.6781C37.3609 22.8468 36.9 21.9336 36.8738 21.2717C36.8457 20.5643 36.83 20.5438 36.3215 20.5438C35.5117 20.5438 35.1182 21.1847 35.1182 22.5045C35.1182 23.2593 35.1879 23.6073 35.3662 23.743C35.5025 23.8467 35.7853 24.1856 35.9944 24.4962C36.2036 24.8067 35.1121 23.7633 33.5687 22.1775C32.0254 20.5917 30.6946 19.1525 30.6115 18.9793C30.3755 18.4872 29.3251 18.015 28.8599 18.192C28.1539 18.4603 27.9391 18.8165 27.9445 19.7083C27.9491 20.4376 27.9768 20.508 28.1639 20.2615C28.4597 19.872 28.5847 19.908 28.5847 20.3825V20.7858L26.8505 20.7698C25.8967 20.7611 24.717 20.7065 24.229 20.6488C23.3846 20.5489 23.3441 20.523 23.3917 20.1142C23.4638 19.4955 22.8973 19.3456 22.262 19.8154C21.7077 20.2252 21.3724 20.1797 20.4301 19.5671C19.9357 19.2458 19.7074 18.9468 19.4906 18.3361C19.333 17.8924 19.2441 17.4895 19.2928 17.4406C19.3417 17.3917 19.4275 17.4711 19.4833 17.6169C19.6406 18.0265 19.9204 17.93 19.8131 17.5032C19.7389 17.207 19.8053 17.0845 20.1183 16.9419C20.6223 16.7124 20.6503 16.3621 20.1556 16.476C19.9559 16.5222 19.3041 16.744 18.7071 16.969C18.1102 17.1941 17.5915 17.3283 17.5546 17.2671C17.4286 17.0582 17.085 14.6476 17.1692 14.5632C17.2155 14.5171 17.9506 14.4035 18.803 14.3108C20.2203 14.1569 20.3977 14.1689 20.8793 14.4529C21.6501 14.9072 22.4551 14.6502 22.4538 13.9502C22.4535 13.7613 22.311 13.3736 22.1371 13.0886C21.7096 12.3875 21.0922 9.79372 20.6092 6.67003C20.0593 3.11384 19.9425 1.65177 20.1849 1.35962C20.2917 1.23088 20.3561 0.884844 20.3279 0.590591C20.2814 0.105978 20.2228 0.0512877 19.7037 0.00756928C19.3035 -0.0259858 19.0483 0.0508053 18.8568 0.262299ZM18.1887 4.18631L17.6268 5.37945L17.9458 7.23466C18.1213 8.25503 18.3436 9.33072 18.4399 9.62498C18.6164 10.1648 18.5294 10.4866 18.2821 10.2083C18.2086 10.1256 18.0584 9.51334 17.9485 8.84789C17.8385 8.18243 17.6722 7.28193 17.5789 6.84684L17.4094 6.05571L17.1284 6.7957C16.9159 7.35581 16.8802 7.70508 16.982 8.23212C17.1651 9.17924 17.1614 9.53109 16.9695 9.41252C16.8807 9.35767 16.8081 9.13133 16.8081 8.90951C16.8081 8.68172 16.738 8.5496 16.6468 8.6059C16.5581 8.66075 16.4855 8.87483 16.4855 9.08148C16.4855 9.2883 16.353 9.62094 16.1912 9.82082C15.7702 10.3408 15.3383 10.1386 13.7224 8.66495C11.5079 6.64583 11.0931 6.33335 11.2341 6.79102C11.4221 7.40115 11.4738 7.87995 11.3519 7.87995C11.2756 7.87995 11.1257 7.48891 11.0187 7.01091C10.9099 6.52452 10.6746 6.00958 10.4844 5.84132C10.1118 5.51174 10.1124 5.44995 10.4717 7.03301C10.517 7.23272 10.4786 7.39598 10.3864 7.39598C10.2941 7.39598 10.1473 7.01478 10.0602 6.54904C9.92143 5.80696 9.90207 5.9607 9.90417 7.79058C9.90546 8.9392 9.97564 10.3782 10.0602 10.9883C10.1731 11.8035 10.1633 12.1589 10.0229 12.3281C9.74914 12.6578 9.16322 12.612 8.82105 12.2339C8.22206 11.572 3.11443 9.42074 2.82614 9.70887C2.77565 9.75952 2.9481 10.0765 3.20977 10.4134C3.67179 11.0083 4.88413 13.2021 6.24005 15.8969L6.90518 17.2189L7.81569 16.6228C8.33257 16.2845 8.72974 15.9046 8.7341 15.7444C8.74378 15.3958 8.59617 15.3885 8.13011 15.7151C7.69437 16.0203 7.14346 15.965 6.91002 15.5926C6.36475 14.7223 9.83222 13.2225 14.1434 12.4638C15.4477 12.2342 17.9375 12.1873 18.8155 12.3757C19.6829 12.5619 19.2539 12.7961 18.1373 12.7462C16.8189 12.6872 14.5022 13.1642 12.3213 13.9436C10.6808 14.5297 10.3515 14.7244 10.6053 14.9578C10.6943 15.0399 11.2315 14.9404 11.8878 14.7205C13.6344 14.1351 16.7489 13.5367 18.6569 13.4199L20.3851 13.3141L20.2933 12.896C19.9523 11.3416 19.1284 5.59659 19.0129 3.96772C18.9831 3.54618 18.9119 3.15433 18.8547 3.09706C18.7974 3.03979 18.4977 3.53005 18.1887 4.18631ZM15.5175 14.8473C13.0729 15.5354 10.3502 16.7779 8.96753 17.8365L8.50002 18.1944L9.95192 18.2007C10.7505 18.2041 11.8625 18.2815 12.4232 18.3724C13.4731 18.5429 13.4779 18.5421 16.5445 17.7053C17.1611 17.537 17.1669 17.5278 17.0662 16.8982C16.6905 14.5487 16.671 14.5227 15.5175 14.8473ZM9.7956 15.0254C9.72655 15.1845 9.71542 15.36 9.77059 15.4153C9.9345 15.5791 10.0666 15.349 9.99112 15.0311C9.92433 14.7492 9.91562 14.7491 9.7956 15.0254ZM9.06465 15.4526C9.06465 15.6352 9.13724 15.7848 9.22597 15.7848C9.3147 15.7848 9.38729 15.6802 9.38729 15.5523C9.38729 15.4244 9.3147 15.275 9.22597 15.2201C9.13724 15.1653 9.06465 15.27 9.06465 15.4526ZM18.3004 17.8277C17.8951 17.995 17.7761 18.1414 17.7761 18.4721C17.7761 18.8712 17.7953 18.8825 18.0618 18.6415C18.2187 18.4992 18.4991 18.3246 18.6846 18.2535C18.9061 18.1685 18.9881 18.0359 18.9232 17.8676C18.8369 17.643 18.7595 17.6382 18.3004 17.8277ZM16.8344 18.4169C16.5181 18.5613 16.4744 18.6684 16.5626 19.0825C16.8283 20.3303 16.856 20.6732 16.6828 20.566C16.5863 20.5063 16.4253 20.0634 16.3255 19.5818C16.2112 19.0315 16.0722 18.731 15.9515 18.7733C15.846 18.81 15.5606 18.913 15.3177 19.0018L14.8756 19.1632L15.2773 19.7551C15.7163 20.402 15.7616 20.8679 15.5184 22.228C15.4301 22.7213 15.3148 23.4142 15.262 23.7678L15.166 24.4105L14.9442 24.0098C14.7238 23.6116 14.7224 23.6131 14.7166 24.2139C14.7135 24.5467 14.6383 24.8188 14.5496 24.8188C14.4609 24.8188 14.3883 24.7143 14.3883 24.5864C14.3883 24.2427 14.116 24.1353 13.7464 24.3331C13.2381 24.6051 13.3491 24.7375 14.348 25.0511C15.6031 25.4452 17.5104 26.4185 18.8153 27.3308L19.8913 28.0829L19.5603 27.5398C19.3782 27.2411 19.2289 26.8696 19.2286 26.7144C19.2283 26.5592 19.1191 26.423 18.986 26.4119C18.8529 26.4007 18.6714 26.3735 18.5827 26.3514C18.4939 26.3293 18.2762 26.302 18.0987 26.2909C17.5973 26.2596 17.6639 25.4144 18.2011 24.9919C18.4349 24.808 18.7253 24.6575 18.8464 24.6575C18.9676 24.6575 19.0684 24.4942 19.0705 24.2945C19.0736 23.9948 19.3586 23.2117 19.9799 21.7963C20.0301 21.6817 19.8854 21.5277 19.6398 21.4343C19.007 21.1936 18.26 21.776 18.26 22.51C18.26 22.8039 18.1874 23.0443 18.0987 23.0443C17.8917 23.0443 17.9224 23.2046 17.7751 21.3504C17.6575 19.8682 17.4207 18.4311 17.2723 18.299C17.2389 18.2691 17.0417 18.3222 16.8344 18.4169ZM4.7896 19.1725C4.84445 19.2613 4.92124 19.3339 4.96044 19.3339C4.99964 19.3339 5.03158 19.2613 5.03158 19.1725C5.03158 19.0838 4.95463 19.0112 4.86074 19.0112C4.76685 19.0112 4.73475 19.0838 4.7896 19.1725ZM72.4802 21.4551C72.0359 22.7292 72.532 24.3507 73.7127 25.4838C74.8233 26.5495 75.3343 26.8544 76.3686 27.0681C78.5681 27.5227 79.7922 26.2914 79.0077 24.4137C78.73 23.7493 77.5877 22.6026 76.7588 22.1562C76.0188 21.7576 75.9164 21.8786 75.7606 23.3335C75.7001 23.8977 75.5942 24.2992 75.5253 24.226C75.4563 24.1527 75.2766 23.5302 75.1259 22.8426C74.9752 22.1551 74.7994 21.5924 74.7352 21.5924C74.671 21.5924 74.5513 21.859 74.469 22.1851C74.267 22.9867 73.9817 23.0331 73.8613 22.2843C73.655 21.0016 72.8142 20.497 72.4802 21.4551ZM41.7368 22.4504C41.602 22.6561 41.4442 23.2792 41.3861 23.8348L41.2804 24.8451L42.7164 24.7916C44.0899 24.7404 44.1546 24.7535 44.2025 25.0913C44.2302 25.2857 44.1073 25.5898 43.9287 25.7684C43.6378 26.0592 42.5381 26.4688 42.0148 26.4811C41.6925 26.4887 41.7736 26.6697 42.4181 27.3798L43.023 28.0466L44.5556 27.802C46.9675 27.4172 46.8662 27.459 46.7535 26.895C46.6175 26.2151 46.8737 25.8302 47.6085 25.6101C48.1876 25.4365 48.2412 25.3705 48.3018 24.7574C48.3785 23.9806 48.1336 23.0452 47.8221 22.9257C47.4434 22.7803 46.817 23.557 46.5123 24.5494C46.3106 25.2065 46.0967 25.5743 45.8307 25.7217C45.2745 26.03 44.9155 25.9965 44.7127 25.6175C44.4146 25.0606 45.0007 23.7326 45.9907 22.7216C46.2009 22.5071 46.0462 22.4585 44.6255 22.2933C42.2011 22.0113 42.018 22.0213 41.7368 22.4504ZM48.75 22.8734C48.75 23.263 48.8397 23.3022 48.9676 22.9688C49.0176 22.8386 48.9891 22.689 48.9042 22.6366C48.8194 22.5842 48.75 22.6908 48.75 22.8734ZM82.9728 23.2056C82.9501 23.8357 83.2309 24.9417 83.7828 26.3948C84.3287 27.832 84.2644 27.7813 85.7735 27.964C86.2172 28.0177 86.817 28.1024 87.1065 28.1524L87.6329 28.2434L87.3337 27.5394C87.169 27.1522 86.9825 26.6245 86.9189 26.3669C86.784 25.8195 86.1475 24.873 85.2268 23.8509L84.5728 23.1249L84.5681 23.9624C84.5657 24.4229 84.491 24.8446 84.4023 24.8995C84.3082 24.9577 84.241 24.7937 84.241 24.5057C84.241 24.198 84.1587 24.0122 84.0224 24.0122C83.902 24.0122 83.728 23.7764 83.6355 23.4879L83.4673 22.9636L83.4508 23.5955C83.4313 24.3444 83.2696 24.2573 83.1051 23.409C83.0236 22.9889 82.983 22.9263 82.9728 23.2056ZM93.043 24.1437C92.8864 24.6152 92.8006 25.0435 92.8525 25.0953C92.9045 25.1473 93.1556 25.1244 93.4107 25.0447L93.8747 24.8995L93.6012 24.0929L93.3278 23.2863L93.043 24.1437ZM75.4489 25.3028C75.5037 25.3915 75.5805 25.4641 75.6197 25.4641C75.6589 25.4641 75.6909 25.3915 75.6909 25.3028C75.6909 25.2141 75.6139 25.1415 75.52 25.1415C75.4261 25.1415 75.394 25.2141 75.4489 25.3028ZM81.1273 25.9481C81.0719 26.3474 80.9835 27.0165 80.9308 27.4351L80.835 28.1961L81.3213 28.0266C81.8552 27.8406 81.8527 27.8935 81.4167 26.0287L81.2281 25.2221L81.1273 25.9481ZM75.772 35.142C75.662 35.4884 75.7786 35.7888 76.023 35.7888C76.1066 35.7888 76.1748 35.571 76.1748 35.3048C76.1748 34.7571 75.9261 34.6566 75.772 35.142Z" fill="white"/>
</svg>
