<svg width="15" height="16" viewBox="0 0 15 16" fill="none" xmlns="http://www.w3.org/2000/svg">
<g clip-path="url(#clip0_345_45)">
<path d="M0.184509 4.97601L0.190624 13.1373H14.7613V4.97601H13.2935V6.60522L9.71833 6.54774V4.91678H5.37825V6.54774H1.84098L1.82857 4.91678L0.184509 4.97601Z" fill="#042100"/>
<path d="M0.537781 12.1801H14.389V12.9844H0.537781V12.1801Z" fill="white"/>
<path d="M14.6341 14.9267H0.366901C0.269592 14.9267 0.17627 14.8881 0.107463 14.8193C0.0386555 14.7505 0 14.6571 0 14.5598L0 4.85933C0 4.76202 0.0386555 4.6687 0.107463 4.59989C0.17627 4.53109 0.269592 4.49243 0.366901 4.49243H14.6341C14.7314 4.49243 14.8247 4.53109 14.8935 4.59989C14.9623 4.6687 15.001 4.76202 15.001 4.85933V14.5598C15.001 14.6571 14.9623 14.7505 14.8935 14.8193C14.8247 14.8881 14.7314 14.9267 14.6341 14.9267ZM0.733801 14.1929H14.2672V5.22623H0.733801V14.1929Z" fill="white"/>
<path d="M4.50219 5.22621H2.73408C2.6859 5.22621 2.63819 5.21672 2.59368 5.19828C2.54916 5.17984 2.50871 5.15282 2.47464 5.11875C2.44057 5.08468 2.41355 5.04423 2.39511 4.99972C2.37667 4.9552 2.36718 4.90749 2.36718 4.85931L2.36578 2.88888C2.36574 2.83415 2.37795 2.78012 2.4015 2.73072C2.42505 2.68132 2.45935 2.63782 2.50189 2.60339L4.2714 1.17073C4.32527 1.12714 4.3904 1.09969 4.45923 1.09157C4.52806 1.08346 4.59779 1.09501 4.66033 1.12488C4.72287 1.15475 4.77567 1.20172 4.81262 1.26036C4.84956 1.319 4.86914 1.38691 4.86909 1.45622V4.85931C4.86909 4.90749 4.8596 4.9552 4.84117 4.99972C4.82273 5.04423 4.7957 5.08468 4.76163 5.11875C4.72756 5.15282 4.68711 5.17984 4.6426 5.19828C4.59809 5.21672 4.55038 5.22621 4.50219 5.22621ZM3.10063 4.49241H4.13529V2.22496L3.09976 3.06359L3.10063 4.49241ZM12.267 5.22621H10.4987C10.4506 5.22621 10.4029 5.21672 10.3583 5.19828C10.3138 5.17984 10.2734 5.15282 10.2393 5.11875C10.2052 5.08468 10.1782 5.04423 10.1598 4.99972C10.1413 4.9552 10.1318 4.90749 10.1318 4.85931V1.45622C10.1318 1.38691 10.1515 1.31901 10.1884 1.26039C10.2254 1.20177 10.2782 1.15483 10.3408 1.12499C10.4034 1.09516 10.4731 1.08365 10.5419 1.09181C10.6108 1.09997 10.6759 1.12745 10.7297 1.17108L12.4992 2.60374C12.5417 2.63815 12.5759 2.6816 12.5994 2.73093C12.623 2.78027 12.6352 2.83423 12.6352 2.88888L12.6338 4.85931C12.6338 4.95659 12.5951 5.04988 12.5264 5.11868C12.4576 5.18749 12.3643 5.22616 12.267 5.22621ZM10.8658 4.49241H11.9005L11.9015 3.06394L10.8656 2.22496L10.8658 4.49241Z" fill="white"/>
<path d="M10.4988 3.1426H4.50225C4.40494 3.1426 4.31162 3.10395 4.24281 3.03514C4.174 2.96633 4.13535 2.87301 4.13535 2.7757V1.45626C4.13535 1.35895 4.174 1.26563 4.24281 1.19682C4.31162 1.12801 4.40494 1.08936 4.50225 1.08936H10.4988C10.5961 1.08936 10.6894 1.12801 10.7582 1.19682C10.827 1.26563 10.8657 1.35895 10.8657 1.45626V2.7757C10.8657 2.87301 10.827 2.96633 10.7582 3.03514C10.6894 3.10395 10.5961 3.1426 10.4988 3.1426ZM4.86897 2.4088H10.1319V1.82316H4.86915L4.86897 2.4088ZM5.37827 6.85389H1.89236C1.84418 6.85389 1.79647 6.8444 1.75195 6.82596C1.70744 6.80752 1.66699 6.78049 1.63292 6.74642C1.59885 6.71235 1.57183 6.67191 1.55339 6.62739C1.53495 6.58288 1.52546 6.53517 1.52546 6.48699V4.85935C1.52546 4.81116 1.53495 4.76345 1.55339 4.71894C1.57183 4.67442 1.59885 4.63398 1.63292 4.59991C1.66699 4.56584 1.70744 4.53881 1.75195 4.52037C1.79647 4.50194 1.84418 4.49245 1.89236 4.49245H5.37827C5.47557 4.49245 5.5689 4.5311 5.6377 4.59991C5.70651 4.66872 5.74517 4.76204 5.74517 4.85935V6.48699C5.74517 6.58429 5.70651 6.67762 5.6377 6.74642C5.5689 6.81523 5.47557 6.85389 5.37827 6.85389ZM2.25926 6.12009H5.01136V5.22625H2.25926V6.12009ZM13.2488 6.85389H9.76308C9.66577 6.85389 9.57245 6.81523 9.50364 6.74642C9.43483 6.67762 9.39618 6.58429 9.39618 6.48699V4.85935C9.39618 4.76204 9.43483 4.66872 9.50364 4.59991C9.57245 4.5311 9.66577 4.49245 9.76308 4.49245H13.2488C13.3461 4.49245 13.4394 4.5311 13.5082 4.59991C13.5771 4.66872 13.6157 4.76204 13.6157 4.85935V6.48699C13.6157 6.58429 13.5771 6.67762 13.5082 6.74642C13.4394 6.81523 13.3461 6.85389 13.2488 6.85389ZM10.1298 6.12009H12.8819V5.22625H10.13L10.1298 6.12009ZM14.4853 13.5042H0.537799C0.440491 13.5042 0.347168 13.4656 0.278361 13.3968C0.209554 13.328 0.170898 13.2346 0.170898 13.1373C0.170898 13.04 0.209554 12.9467 0.278361 12.8779C0.347168 12.8091 0.440491 12.7704 0.537799 12.7704H14.4853C14.5826 12.7704 14.6759 12.8091 14.7447 12.8779C14.8135 12.9467 14.8522 13.04 14.8522 13.1373C14.8522 13.2346 14.8135 13.328 14.7447 13.3968C14.6759 13.4656 14.5826 13.5042 14.4853 13.5042Z" fill="white"/>
</g>
<defs>
<clipPath id="clip0_345_45">
<rect width="15" height="15" fill="white" transform="translate(0 0.507996)"/>
</clipPath>
</defs>
</svg>
